#!OML:ASF F:\VICON\USERDATA\INSTALL\rory3\rory3.ASF
:FULLY-SPECIFIED
:DEGREES
27
root 0.9354528799459121 18.064216409834234 -7.3858186566185875 -4.919794815270462 -4.259664251643361 2.1098274295296746
lfemur -3.2976404305129865 -0.5289395805821051 -27.531186623103036
ltibia 25.179597155933244
lfoot -16.331285315370693 5.467669738483505
ltoes 4.003928958851663
rfemur -24.22716103910794 -1.4338846798104719 20.69838094432351
rtibia 68.46282644812632
rfoot -4.384238950374668 -4.060837836372086
rtoes 7.258443660999462
lowerback 11.182589474360551 0.3867440411814047 -1.9385190975558386
upperback 0.7041222991202309 0.6084343601406043 0.4065484426565935
thorax -5.358984648176038 0.3735010162511734 1.3605287321338533
lowerneck -16.280335634021117 -2.9003827961499047 -1.972631066312069
upperneck 21.340173327329957 -3.6202037260411175 0.4557377245916614
head 9.568081024637332 -1.7721315303164942 -0.0021309763338062115
lclavicle -1.95324061691531e-15 9.06769233869127e-16
lhumerus -29.386338544500777 0.820633491693702 83.24302124005024
lradius 22.28192503083837
lwrist 5.0330700014331935
lhand -27.00008270414995 24.21129156745667
lfingers 7.12502
lthumb -0.41167408295164654 54.2918695560571
rclavicle -1.9532406170813023e-15 9.067692337165652e-16
rhumerus -28.222646801382684 -22.614873558944748 -78.21643038244501
rradius 22.45889298290818
rwrist 7.780125901707901
rhand -17.514899949182812 23.155351037421436
rfingers 7.12502
rthumb 8.593031973618281 -7.051951941168449
28
root 0.9096771309675454 18.00720542735093 -6.820940329503179 -4.4614817198151915 -2.97018313307996 2.4610162924738366
lfemur -1.2896350832549617 -0.6996481191849993 -27.90527127105394
ltibia 24.913459304823093
lfoot -17.718249254704165 5.5407059273856
ltoes 4.571264520824883
rfemur -27.74005014063114 -1.6862262183409724 20.703189139609602
rtibia 61.68682829816959
rfoot -7.639321895488583 -5.185657103186136
rtoes 4.982035453778596
lowerback 11.220660730391025 -0.001622167064375124 -2.5449825894012656
upperback 0.7314854453538133 -0.0883219255514418 0.5734744728681436
thorax -5.294794205060816 0.004279692833199178 1.8810555575291295
lowerneck -16.787939488640895 -2.854684792218401 -2.135427785655092
upperneck 21.15289544520365 -3.533588102283654 0.47502012728495907
head 9.552140286776863 -1.7349378351503597 -0.006475258545860618
lclavicle -1.953240616917377e-15 9.067692338673796e-16
lhumerus -27.324732019185987 -1.2640081655396038 83.7737268127872
lradius 23.662376486057077
lwrist 5.687034674964601
lhand -26.898004694813082 23.792499901812555
lfingers 7.12502
lthumb -0.316679203522631 53.870644682345095
rclavicle -1.9532406170640085e-15 9.06769233732752e-16
rhumerus -28.584927998482467 -22.144630832549417 -77.86646774346863
rradius 23.046683589623907
rwrist 6.802165945959942
rhand -17.522520021168635 23.061767838943936
rfingers 7.12502
rthumb 8.561276653594044 -7.09392651185699
29
root 0.8800963602888812 17.98690174753471 -6.307767140545531 -3.7598242548736702 -1.7136455673997029 2.7228353906258733
lfemur 1.1018944450741852 -0.9108148574082253 -28.09501694449958
ltibia 22.87622202973067
lfoot -18.0303181759927 5.36780279578117
ltoes 4.799623617505089
rfemur -29.94666814313512 -1.369519587984704 20.477467209919368
rtibia 52.62903283276992
rfoot -8.315242419427312 -7.511369969493088
rtoes 2.19693180234556
lowerback 10.875151706892275 -0.38445777878065235 -3.158282998351053
upperback 0.7637420081994021 -0.614995671800852 0.8022775936823378
thorax -5.0754948307973455 -0.23901064329634225 2.354763892414381
lowerneck -16.590542709103655 -2.875363574372361 -2.308583840036718
upperneck 20.914153397182524 -3.5939703781160484 0.7301821341155806
head 9.449857045079034 -1.7487255019398467 0.11440831569918158
lclavicle -1.9532406169289294e-15 9.067692338576285e-16
lhumerus -25.65618803092516 -3.026486473664865 83.78341419981025
lradius 25.503526040388884
lwrist 6.073617077762443
lhand -27.09273771135196 23.4006485749876
lfingers 7.12502
lthumb -0.5600066184161202 53.36888443993617
rclavicle -1.953240617081311e-15 9.067692337174412e-16
rhumerus -29.401095894511432 -21.795970999379147 -77.56995575440276
rradius 23.686363078809816
rwrist 5.546855100492548
rhand -17.60974214004454 22.79217204686121
rfingers 7.12502
rthumb 8.452814000696751 -7.4044329883982325
30
root 0.840099644098184 17.975036111477838 -5.828258976003925 -2.8689762623557438 -0.35679196480873165 3.092427804477611
lfemur 3.862731643923704 -1.0485043393379576 -28.281748284119665
ltibia 19.01786851134444
lfoot -17.69424588124999 4.793678997308437
ltoes 4.387522817212773
rfemur -30.441402449224654 -0.44705554774138623 19.810525330313872
rtibia 41.37359471290348
rfoot -7.178114906816497 -10.530763630039754
rtoes 1.4605735568572986
lowerback 10.050828861178797 -0.670617725994522 -3.9566105601725647
upperback 0.8152609519316689 -1.1301154389684132 0.7690697577292073
thorax -4.746136826868429 -0.5041698386130542 2.83982777799645
lowerneck -16.939604371345474 -2.895490779722298 -2.532131375387265
upperneck 20.761439431435928 -3.598805847576969 0.8891007167756929
head 9.403563955559195 -1.7333560117929647 0.1613803872180183
lclavicle -1.9532406169266193e-15 9.067692338597472e-16
lhumerus -24.044121594128637 -4.511738370800372 83.69843601616431
lradius 27.250709245351622
lwrist 6.608686260426824
lhand -27.244054066219892 23.071892137896914
lfingers 7.12502
lthumb -0.7086904666417816 53.11394050963065
rclavicle -1.953240617080877e-15 9.067692337178633e-16
rhumerus -30.069726952024688 -22.058171355066776 -77.15862372224828
rradius 23.848098377707327
rwrist 5.111631766898494
rhand -17.644656826799267 22.638039361977135
rfingers 7.12502
rthumb 8.510290701516078 -7.402201456934888
31
root 0.7858612395440077 17.983488014497134 -5.404422185153146 -1.853113905051845 1.1125223463113505 3.2593835323829023
lfemur 7.1379311270308285 -0.9081745421312613 -28.13540126509649
ltibia 14.510786450898628
lfoot -16.80538575906797 3.713076657521338
ltoes 2.6303763924284618
rfemur -27.835209150056127 2.4769310777094575 18.05252215765909
rtibia 27.911225793856424
rfoot -7.2719342692759295 -14.1183468057622
rtoes 1.144794435996336
lowerback 9.473780776269251 -1.015564133830428 -4.43738906560205
upperback 0.719931747046781 -1.592351171329228 0.9681000843483688
thorax -4.631696010239848 -0.7172546697280238 3.395735528998199
lowerneck -17.11207701328425 -2.8784101825723454 -2.4888393477596225
upperneck 20.646212220916414 -3.6110917799822606 0.994042959333312
head 9.324898072559376 -1.7284589608713368 0.1959419550530786
lclavicle -1.9532406169278487e-15 9.067692338574828e-16
lhumerus -22.61443243490058 -5.639876418956236 83.48086128696072
lradius 28.808630408695187
lwrist 6.79383111261978
lhand -26.87342985283701 24.72039125862576
lfingers 7.12502
lthumb -0.34617705603186083 54.60232547150546
rclavicle -1.9532406170843212e-15 9.06769233713706e-16
rhumerus -30.946054363665155 -23.19443245982437 -76.55456865711263
rradius 23.667547334435834
rwrist 5.531253624890872
rhand -17.656861342371982 22.179920440071097
rfingers 7.12502
rthumb 8.524060374969558 -7.876957396738891
32
root 0.7134286712592823 17.95429316706155 -4.621339106904294 -0.9651068199831252 2.6348602441978355 3.794372863553265
lfemur 10.143919433043251 -1.0925359582443188 -28.02900360403602
ltibia 11.261492874897517
lfoot -16.241908443959055 2.303283213231097
ltoes 0.1526320330960016
rfemur -26.832975556392768 7.076454373690922 14.449993391939081
rtibia 16.45866001652165
rfoot -10.382124024891828 -18.262427070474686
rtoes -0.4833268402459119
lowerback 9.229234802159619 -1.216359176521697 -5.18900097586074
upperback 0.6924622011395083 -1.9311901352964713 1.0020037567003934
thorax -4.489518622082398 -0.87478407227447 3.84754056114388
lowerneck -17.033138770418798 -2.8708059259202656 -2.4674482575617818
upperneck 20.63313363946939 -3.6584356738506654 1.0864606685428517
head 9.31753078868765 -1.7377545432349086 0.21233399118814622
lclavicle -1.9532406169201423e-15 9.067692338631427e-16
lhumerus -21.773825462056926 -6.403816984402539 83.28851316968176
lradius 30.268368405642967
lwrist 7.051105985927096
lhand -27.033513252360557 24.552232019985155
lfingers 7.12502
lthumb -0.45860634157036606 54.47766841200716
rclavicle -1.9532406170848786e-15 9.067692337118983e-16
rhumerus -31.4309780541632 -24.510977377818513 -75.93110476381206
rradius 23.13973786562186
rwrist 6.745247471642414
rhand -17.776316431201735 22.370236433212824
rfingers 7.12502
rthumb 8.377671008736439 -7.702222582318747
